<svg width="226" height="39" viewBox="0 0 226 39" fill="none" xmlns="http://www.w3.org/2000/svg">
<path d="M22.12 16.32L22.8 14.76C25.12 14.8133 27.0267 15.1733 28.52 15.84C30.04 16.48 31.1733 17.3867 31.92 18.56C32.6667 19.7067 33.04 21.04 33.04 22.56C33.04 24.1867 32.6667 25.64 31.92 26.92C31.1733 28.1733 30.0533 29.1733 28.56 29.92C27.0933 30.64 25.2533 31 23.04 31H0.88L3.2 15.6L0.88 0.999998H22.24C25.0133 0.999998 27.1733 1.65333 28.72 2.96C30.2667 4.24 31.04 6.02666 31.04 8.32C31.04 9.57333 30.7467 10.7733 30.16 11.92C29.5733 13.0667 28.6267 14.04 27.32 14.84C26.04 15.6133 24.3067 16.1067 22.12 16.32ZM9.08 29.08L5.88 25.2H20.8C22 25.2 22.9333 24.9067 23.6 24.32C24.2667 23.7333 24.6 22.92 24.6 21.88C24.6 20.84 24.24 20.0133 23.52 19.4C22.8 18.76 21.7333 18.44 20.32 18.44H8V12.76H19.2C20.16 12.76 20.96 12.48 21.6 11.92C22.2667 11.3333 22.6 10.5467 22.6 9.56C22.6 8.76 22.32 8.10666 21.76 7.6C21.2 7.06667 20.4 6.8 19.36 6.8H5.92L9.08 2.92L11.12 15.6L9.08 29.08ZM36.3963 0.199998H44.5963V31H36.3963V0.199998ZM62.6916 31.64C59.7582 31.64 57.1982 31.1467 55.0116 30.16C52.8249 29.1467 51.1182 27.7333 49.8916 25.92C48.6649 24.08 48.0516 21.9733 48.0516 19.6C48.0516 17.1733 48.6649 15.0533 49.8916 13.24C51.1182 11.4267 52.8249 10.0133 55.0116 9C57.1982 7.98667 59.7582 7.48 62.6916 7.48C65.5982 7.48 68.1449 7.98667 70.3316 9C72.5449 10.0133 74.2649 11.4267 75.4916 13.24C76.7182 15.0533 77.3316 17.1733 77.3316 19.6C77.3316 21.9733 76.7182 24.08 75.4916 25.92C74.2649 27.7333 72.5449 29.1467 70.3316 30.16C68.1449 31.1467 65.5982 31.64 62.6916 31.64ZM62.6916 25.6C64.0249 25.6 65.1582 25.36 66.0916 24.88C67.0516 24.4 67.7849 23.7067 68.2916 22.8C68.7982 21.8933 69.0516 20.8267 69.0516 19.6C69.0516 18.32 68.7982 17.24 68.2916 16.36C67.7849 15.4533 67.0516 14.76 66.0916 14.28C65.1582 13.8 64.0249 13.56 62.6916 13.56C61.3582 13.56 60.2116 13.8 59.2516 14.28C58.2916 14.76 57.5582 15.4533 57.0516 16.36C56.5449 17.24 56.2916 18.3067 56.2916 19.56C56.2916 20.8133 56.5449 21.8933 57.0516 22.8C57.5582 23.7067 58.2916 24.4 59.2516 24.88C60.2116 25.36 61.3582 25.6 62.6916 25.6ZM100.731 25.24V21.36L101.011 20.4V14.8L100.731 13.96V8.16H108.891V24.92C108.891 27.72 108.238 30.12 106.931 32.12C105.625 34.12 103.798 35.64 101.451 36.68C99.1313 37.72 96.3846 38.24 93.2113 38.24C91.1046 38.24 89.1446 37.96 87.3313 37.4C85.5446 36.8667 83.7579 36.0667 81.9713 35V28.84C83.6246 30.0667 85.3579 30.9467 87.1713 31.48C89.0113 32.04 90.8513 32.32 92.6913 32.32C95.3046 32.32 97.2913 31.76 98.6513 30.64C100.038 29.52 100.731 27.72 100.731 25.24ZM90.9313 28.6C88.7713 28.6 86.8513 28.16 85.1713 27.28C83.4913 26.4 82.1579 25.1733 81.1712 23.6C80.2113 22 79.7313 20.1467 79.7313 18.04C79.7313 15.9067 80.2113 14.0533 81.1712 12.48C82.1579 10.9067 83.4913 9.68 85.1713 8.8C86.8513 7.92 88.7713 7.48 90.9313 7.48C92.5313 7.48 93.9979 7.73333 95.3313 8.24C96.6646 8.72 97.8513 9.37333 98.8913 10.2C99.9313 11 100.798 11.88 101.491 12.84C102.211 13.7733 102.758 14.7067 103.131 15.64C103.505 16.5733 103.691 17.4 103.691 18.12C103.691 19.1067 103.398 20.2 102.811 21.4C102.251 22.6 101.425 23.7467 100.331 24.84C99.2379 25.9333 97.8913 26.84 96.2913 27.56C94.7179 28.2533 92.9313 28.6 90.9313 28.6ZM93.6913 23.04C95.2646 23.04 96.6646 22.6267 97.8913 21.8C99.1179 20.9733 100.158 19.72 101.011 18.04C100.131 16.3333 99.0779 15.08 97.8513 14.28C96.6246 13.4533 95.2379 13.04 93.6913 13.04C92.5179 13.04 91.4913 13.24 90.6113 13.64C89.7579 14.04 89.1046 14.6267 88.6513 15.4C88.1979 16.1467 87.9713 17.0267 87.9713 18.04C87.9713 19.0267 88.1979 19.9067 88.6513 20.68C89.1046 21.4267 89.7579 22.0133 90.6113 22.44C91.4646 22.84 92.4913 23.04 93.6913 23.04ZM120.927 4.64H129.247V31H120.927V4.64ZM109.487 0.999998H140.687V8.36H109.487V0.999998ZM151.749 31.64C148.976 31.64 146.496 31.1333 144.309 30.12C142.149 29.1067 140.443 27.6933 139.189 25.88C137.936 24.04 137.309 21.9067 137.309 19.48C137.309 17.1067 137.909 15.0267 139.109 13.24C140.309 11.4267 141.949 10.0133 144.029 9C146.136 7.98667 148.509 7.48 151.149 7.48C153.896 7.48 156.229 8.08 158.149 9.28C160.096 10.4533 161.589 12.12 162.629 14.28C163.696 16.44 164.229 18.9867 164.229 21.92H143.909V17H159.629L156.949 18.72C156.843 17.5467 156.549 16.56 156.069 15.76C155.589 14.9333 154.949 14.3067 154.149 13.88C153.376 13.4533 152.443 13.24 151.349 13.24C150.149 13.24 149.123 13.48 148.269 13.96C147.416 14.44 146.749 15.1067 146.269 15.96C145.789 16.7867 145.549 17.76 145.549 18.88C145.549 20.32 145.869 21.5467 146.509 22.56C147.176 23.5467 148.136 24.3067 149.389 24.84C150.669 25.3733 152.229 25.64 154.069 25.64C155.749 25.64 157.416 25.4267 159.069 25C160.749 24.5467 162.269 23.92 163.629 23.12V28.32C162.056 29.3867 160.256 30.2133 158.229 30.8C156.229 31.36 154.069 31.64 151.749 31.64ZM194.964 21.36C194.751 23.4133 194.004 25.2133 192.724 26.76C191.444 28.3067 189.778 29.5067 187.724 30.36C185.698 31.2133 183.418 31.64 180.884 31.64C178.084 31.64 175.618 31.1333 173.484 30.12C171.351 29.1067 169.684 27.6933 168.484 25.88C167.284 24.0667 166.684 21.9733 166.684 19.6C166.684 17.2 167.284 15.0933 168.484 13.28C169.684 11.4667 171.351 10.0533 173.484 9.04C175.618 8 178.084 7.48 180.884 7.48C183.418 7.48 185.698 7.92 187.724 8.8C189.778 9.65333 191.444 10.8533 192.724 12.4C194.004 13.92 194.751 15.72 194.964 17.8H186.844C186.551 16.44 185.871 15.4 184.804 14.68C183.738 13.9333 182.431 13.56 180.884 13.56C179.684 13.56 178.631 13.8 177.724 14.28C176.844 14.7333 176.151 15.4133 175.644 16.32C175.164 17.2 174.924 18.2933 174.924 19.6C174.924 20.88 175.164 21.9733 175.644 22.88C176.151 23.76 176.844 24.44 177.724 24.92C178.631 25.3733 179.684 25.6 180.884 25.6C182.431 25.6 183.738 25.2133 184.804 24.44C185.898 23.6667 186.578 22.64 186.844 21.36H194.964ZM198.193 0.199998H206.393V31H198.193V0.199998ZM214.753 7.48C216.966 7.48 218.833 7.92 220.353 8.8C221.9 9.68 223.086 10.92 223.913 12.52C224.74 14.12 225.153 16.0133 225.153 18.2V31H216.953V19.4C216.953 17.6933 216.513 16.3867 215.633 15.48C214.78 14.5733 213.54 14.12 211.913 14.12C210.793 14.12 209.806 14.36 208.953 14.84C208.126 15.32 207.486 16 207.033 16.88C206.606 17.76 206.393 18.8 206.393 20L203.833 18.68C204.153 16.2533 204.833 14.2133 205.873 12.56C206.913 10.88 208.193 9.61333 209.713 8.76C211.26 7.90667 212.94 7.48 214.753 7.48Z" fill="#3B82F6"/>
</svg>
